<svg xmlns="http://www.w3.org/2000/svg" viewBox="0 0 64 64" role="img" aria-label="Semraz">
  <rect width="64" height="64" rx="13" fill="#16150f"/>
  <path fill="#ffffff" d="M31.7 45.8c-3 0-5.8-.5-8.5-1.6-2.7-1-4.8-2.5-6.3-4.2l4.2-5.1c1.4 1.4 3 2.5 4.9 3.3s3.8 1.2 5.7 1.2c2 0 3.5-.3 4.4-1s1.4-1.6 1.4-2.7c0-.8-.3-1.5-.9-2s-1.4-1-2.4-1.3-2.1-.7-3.4-1l-4.1-1.1c-1.6-.4-3.1-1.1-4.5-1.9-1.4-.9-2.6-2-3.5-3.5-.9-1.4-1.3-3.1-1.3-5.2 0-2.3.6-4.3 1.9-6.1s3.1-3.3 5.4-4.3c2.3-1.1 5-1.6 8.1-1.6 2.6 0 5.1.5 7.5 1.4 2.4 1 4.4 2.3 6 4l-3.7 4.7c-1.4-1.1-2.8-2-4.4-2.6-1.6-.6-3.4-.9-5.4-.9-1.7 0-3 .3-4 .9s-1.5 1.5-1.5 2.6c0 .8.3 1.5 1 2s1.6.9 2.7 1.3c1.1.3 2.3.7 3.6 1l4 1c1.9.5 3.5 1.2 4.9 2.1 1.4.8 2.5 2 3.3 3.4s1.2 3.1 1.2 5.2c0 2.2-.6 4.2-1.9 6.1-1.2 1.9-3.1 3.4-5.5 4.5-2.4.8-5.4 1.4-8.9 1.4Z"/>
  <circle cx="48.5" cy="46.5" r="5.5" fill="#f5490f"/>
</svg>
